# xmcd
#
# Track frame offsets:
#       150
#       18952
#       34825
#       58300
#       81357
#       100170
#       112615
#       134557
#       153825
#       170070
#       185255
#       209610
#       237407
#       254550
#
# Disc length: 3480 seconds
#
# Revision: 1
# Processed by: cddbd v1.4PL0 Copyright (c) Steve Scherf et al.
# Submitted via: MusiCat 1.1
#
DISCID=c10d960e
DTITLE=King Alex and The Untouchables - Grindin' Stone
DYEAR=1995
DGENRE=
TTITLE0=Grindin' stone
TTITLE1=Brandin' Iron
TTITLE2=Ain't  got enough money
TTITLE3=Sad Night
TTITLE4=Lonely Laid off Blues
TTITLE5=Bos of my heart
TTITLE6=Cherry Red
TTITLE7=Sad and Gone
TTITLE8=Stone to the Bone
TTITLE9=Break it up
TTITLE10=Turnin' me down
TTITLE11=Seems they always want to shoot the Supervisor
TTITLE12=What a woman can do to your heart
TTITLE13=Eighty seconds of sticks
EXTD=1995\n\n\nsubmitted by Stamppot
EXTT0=
EXTT1=
EXTT2=
EXTT3=
EXTT4=
EXTT5=
EXTT6=
EXTT7=
EXTT8=
EXTT9=
EXTT10=
EXTT11=
EXTT12=
EXTT13=
PLAYORDER=
